<svg width="43" height="43" viewBox="0 0 43 43" fill="none" xmlns="http://www.w3.org/2000/svg">
<path fill-rule="evenodd" clip-rule="evenodd" d="M7.73218 30.6562C7.26449 30.6562 6.81595 30.4705 6.48525 30.1398C6.15454 29.809 5.96875 29.3605 5.96875 28.8928C5.96875 28.4251 6.15454 27.9766 6.48525 27.6459C6.81595 27.3152 7.26449 27.1294 7.73218 27.1294H11.259L16.5493 21.8391L11.259 16.5488H7.73218C7.27813 16.5285 6.84942 16.3339 6.5353 16.0054C6.22118 15.6769 6.04587 15.2399 6.04587 14.7854C6.04587 14.3309 6.22118 13.8939 6.5353 13.5654C6.84942 13.2369 7.27813 13.0423 7.73218 13.022H13.0225L20.0762 20.0757L27.1299 13.022H30.6567V9.49512L37.7104 14.7872L30.6567 20.0757V16.5488H28.8933L23.603 21.8391L28.8933 27.1294H30.6567V23.6025L37.7104 28.8928L30.6567 34.1831V30.6562H27.1299L20.0762 23.6025L13.0225 30.6562H7.73218Z" fill="white"/>
</svg>
